<?xml version="1.0" encoding="UTF-8"?>
<svg width="1024px" height="1024px" viewBox="0 0 1024 1024" version="1.1" xmlns="http://www.w3.org/2000/svg" xmlns:xlink="http://www.w3.org/1999/xlink">
    <title>2 - Layer</title>
    <g id="Template---App-Icons" stroke="none" stroke-width="1" fill="none" fill-rule="evenodd">
        <g id="2---Layer" fill="color(display-p3 0.949 0.888 0.824)" stroke="color(display-p3 0.000 0.000 0.000)" stroke-width="26">
            <path d="M673.602945,258 C715.975573,258 755.758135,272.102691 787.805045,296.405854 C819.851955,320.709018 844.163212,355.212654 855.59323,396.014545 C863.278358,423.44825 859.11623,451.399822 846.174393,474.41425 C833.232556,497.428677 811.511011,515.505961 784.077306,523.191089 C775.018296,525.72883 765.654749,527.015589 756.246997,527.015589 L661.168065,527.015589 L615.612981,754.267229 L605.513905,765.015589 L457.279165,765.015589 C397.35627,765.015589 343.10627,740.727036 303.836994,701.45776 C264.567718,662.188484 240.279165,607.938484 240.279165,548.015589 C240.279165,546.682254 240.291454,545.348948 240.31603,544.01584 L241.662084,471.000251 C242.752215,411.866965 267.421332,358.616902 306.603749,320.150161 C345.786166,281.68342 399.481885,258 458.625219,258 Z" id="Rectangle-3"></path>
        </g>
    </g>
</svg>