<?xml version="1.0" encoding="UTF-8"?>
<svg width="201px" height="351px" viewBox="0 0 201 351" version="1.1" xmlns="http://www.w3.org/2000/svg" xmlns:xlink="http://www.w3.org/1999/xlink">
    <title>Combined Shape</title>
    <g id="Gina" stroke="none" stroke-width="1" fill="none" fill-rule="evenodd">
        <g id="DarkModeLogo" transform="translate(-325, -279)" fill="#FFFFFF">
            <path d="M392,630 L325.2,630 L325.2,279 L458.8,279 C476.933333,279 492.533333,285.6 505.6,298.8 C518.666667,312 525.2,327.666667 525.2,345.8 L525.2,379 C525.2,397.133333 518.666667,412.8 505.6,426 C492.533333,439.2 476.933333,445.8 458.8,445.8 L392,445.8 L392,630 Z M425.2,312.2 L392,312.2 L392,412.2 L425.2,412.2 C434.533333,412.2 442.466667,408.933333 449,402.4 C455.533333,395.866667 458.8,388.066667 458.8,379 L458.8,345.8 C458.8,336.466667 455.533333,328.533333 449,322 C442.466667,315.466667 434.533333,312.2 425.2,312.2 Z" id="Combined-Shape"></path>
        </g>
    </g>
</svg>