<?xml version="1.0" encoding="UTF-8"?>
<svg width="646px" height="534px" viewBox="0 0 646 534" version="1.1" xmlns="http://www.w3.org/2000/svg" xmlns:xlink="http://www.w3.org/1999/xlink">
    <title>Rectangle 3</title>
    <g id="Gina" stroke="none" stroke-width="1" fill="none" fill-rule="evenodd">
        <g id="DarkModeLogo" transform="translate(-197, -184)" fill="#000000" stroke="#FFFFFF" stroke-width="26">
            <path d="M643.602945,197.984411 C685.975573,197.984411 725.758135,212.087102 757.805045,236.390266 C789.851955,260.693429 814.163212,295.197065 825.59323,335.998956 C833.278358,363.432661 829.11623,391.384233 816.174393,414.398661 C803.232556,437.413089 781.511011,455.490372 754.077306,463.1755 C745.018296,465.713241 735.654749,467 726.246997,467 L631.168065,467 L585.612981,694.25164 L575.513905,705 L427.279165,705 C367.35627,705 313.10627,680.711448 273.836994,641.442172 C234.567718,602.172895 210.279165,547.922895 210.279165,488 C210.279165,486.666666 210.291454,485.333359 210.31603,484.000251 L211.662084,410.984663 C212.752215,351.851376 237.421332,298.601313 276.603749,260.134572 C315.786166,221.667831 369.481885,197.984411 428.625219,197.984411 Z" id="Rectangle-3"></path>
        </g>
    </g>
</svg>